<?xml version="1.0" standalone="no"?>
<!DOCTYPE svg PUBLIC "-//W3C//DTD SVG 20010904//EN"
 "http://www.w3.org/TR/2001/REC-SVG-20010904/DTD/svg10.dtd">
<svg version="1.0" xmlns="http://www.w3.org/2000/svg"
 width="700.000000pt" height="400.000000pt" viewBox="0 0 700.000000 400.000000"
 preserveAspectRatio="xMidYMid meet">

<g transform="translate(0.000000,400.000000) scale(0.100000,-0.100000)"
fill="#000000" stroke="none">
<path d="M0 2000 l0 -2000 3500 0 3500 0 0 2000 0 2000 -3500 0 -3500 0 0
-2000z m1100 1255 l0 -605 96 0 c86 0 95 -2 90 -17 -2 -10 -14 -71 -26 -136
l-22 -117 -224 0 -224 0 0 740 0 740 155 0 155 0 0 -605z m2031 478 l0 -128
65 128 64 127 125 0 c77 0 125 -4 125 -10 0 -6 -52 -114 -116 -241 l-115 -232
43 -46 c24 -25 79 -83 121 -128 l77 -83 0 -370 0 -370 -155 0 -155 0 0 295 0
296 -40 42 -39 42 -1 -337 0 -338 -155 0 -155 0 0 740 0 740 155 0 155 0 1
-127z m-2440 86 c15 -17 31 -45 34 -62 4 -18 5 -139 3 -269 l-3 -236 -31 -44
-30 -43 30 -43 31 -44 3 -286 c2 -158 0 -301 -3 -319 -3 -17 -19 -45 -34 -62
l-29 -31 -316 0 -316 0 0 735 0 735 316 0 316 0 29 -31z m1194 9 c3 -13 61
-333 130 -713 69 -379 127 -700 130 -712 l5 -23 -159 0 -160 0 -6 38 c-11 66
-7 63 -107 60 l-93 -3 -9 -47 -8 -48 -160 0 -159 0 6 33 c3 17 52 286 109 597
l102 565 -48 3 c-35 2 -48 7 -48 18 0 9 10 69 22 135 l22 119 213 0 c212 0
213 0 218 -22z m875 -113 l0 -135 -120 0 -120 0 0 -465 0 -465 120 0 120 0 0
-135 0 -135 -238 0 c-264 0 -271 2 -298 66 -21 49 -21 1289 0 1338 27 64 34
66 298 66 l238 0 0 -135z m1775 113 c2 -13 12 -63 20 -113 9 -49 18 -100 21
-112 l4 -23 -150 0 -150 0 0 -145 0 -145 91 0 c50 0 99 -5 110 -10 10 -6 28
-28 39 -50 19 -37 20 -59 20 -392 0 -325 -2 -356 -19 -395 -11 -23 -28 -46
-39 -52 -13 -7 -106 -11 -256 -11 -215 0 -235 1 -240 18 -2 9 -12 58 -21 107
-8 50 -18 102 -21 118 l-6 27 146 0 146 0 0 185 0 185 -93 0 c-167 0 -167 0
-167 420 0 332 1 341 43 388 20 22 24 22 269 22 l248 0 5 -22z m751 7 c51 -35
54 -56 54 -437 0 -342 -1 -354 -21 -388 -36 -58 -40 -59 -211 -60 l-158 0 0
-285 0 -285 -155 0 -155 0 0 735 0 735 313 0 c258 0 316 -3 333 -15z m782 -1
c53 -37 52 -22 52 -719 0 -697 1 -682 -52 -719 -32 -23 -582 -24 -614 -1 -55
37 -54 31 -54 720 0 689 -1 683 54 720 32 23 582 22 614 -1z m756 -11 c3 -16
13 -68 21 -118 9 -49 19 -98 21 -107 5 -16 -4 -18 -90 -18 l-96 0 0 -600 0
-600 -155 0 -155 0 0 600 0 599 -93 3 -92 3 24 133 24 132 293 0 292 0 6 -27z
m76 -2068 l0 -515 -3430 0 -3430 0 0 515 0 515 3430 0 3430 0 0 -515z"/>
<path d="M340 3435 l0 -145 55 0 55 0 0 145 0 145 -55 0 -55 0 0 -145z"/>
<path d="M340 2835 l0 -185 55 0 55 0 0 185 0 185 -55 0 -55 0 0 -185z"/>
<path d="M1697 2872 c-10 -53 -17 -100 -17 -104 0 -5 18 -8 41 -8 38 0 41 2
36 23 -3 12 -11 54 -18 92 -6 39 -14 75 -18 82 -4 7 -14 -31 -24 -85z"/>
<path d="M4950 3405 l0 -175 50 0 50 0 0 175 0 175 -50 0 -50 0 0 -175z"/>
<path d="M5710 3115 l0 -465 50 0 50 0 0 465 0 465 -50 0 -50 0 0 -465z"/>
<path d="M190 1755 l0 -365 3280 0 3280 0 0 365 0 365 -3280 0 -3280 0 0 -365z
m1198 270 l52 -16 0 -69 c0 -46 -4 -70 -12 -70 -6 0 -36 12 -67 27 -43 21 -74
29 -133 32 -72 3 -79 1 -103 -23 -33 -33 -21 -61 33 -74 20 -6 68 -17 107 -26
145 -34 195 -79 195 -176 0 -96 -64 -166 -175 -191 -69 -15 -245 -6 -307 16
l-48 17 0 74 c0 43 4 74 10 74 6 0 34 -13 63 -29 124 -69 287 -63 287 10 0 28
-36 45 -130 64 -178 36 -246 102 -227 221 12 70 86 134 178 154 60 13 213 5
277 -15z m4518 -4 c110 -49 166 -142 168 -276 1 -139 -43 -224 -145 -280 -47
-26 -66 -30 -154 -33 -84 -3 -109 0 -156 17 -64 25 -119 73 -151 134 -27 53
-37 195 -18 263 25 90 101 163 198 191 68 19 196 11 258 -16z m-3556 -46 l0
-65 -95 0 -95 0 0 -235 0 -235 -85 0 -85 0 0 235 0 235 -95 0 -95 0 0 65 0 65
275 0 275 0 0 -65z m540 -135 c0 -260 11 -290 109 -290 52 0 86 16 100 47 7
15 11 101 11 233 l0 210 85 0 85 0 0 -212 c0 -228 -6 -270 -47 -318 -51 -61
-94 -75 -228 -75 -106 0 -126 3 -168 24 -30 15 -58 39 -75 64 l-27 40 -3 239
-3 238 80 0 81 0 0 -200z m1216 176 c108 -34 175 -111 195 -224 28 -160 -70
-309 -226 -340 -32 -7 -125 -12 -207 -12 l-148 0 0 301 0 302 168 -6 c110 -3
184 -11 218 -21z m944 -36 l0 -60 -50 0 -50 0 0 -185 0 -185 50 0 50 0 0 -55
0 -55 -180 0 -180 0 0 55 0 55 50 0 50 0 0 185 0 185 -50 0 -50 0 0 60 0 60
180 0 180 0 0 -60z"/>
<path d="M5705 1916 c-64 -29 -95 -90 -95 -185 1 -118 61 -185 158 -178 88 6
132 67 132 181 0 115 -45 183 -128 192 -20 2 -50 -2 -67 -10z"/>
<path d="M3880 1740 l0 -183 76 5 c83 6 113 21 152 78 17 25 22 47 22 94 0
114 -55 169 -183 182 l-67 7 0 -183z"/>
</g>
</svg>
